<svg width="22" height="26" viewBox="0 0 22 26" fill="none" xmlns="http://www.w3.org/2000/svg">
<path d="M3.3 10.019V16.742C3.3 17.6361 2.60677 18.3502 1.72448 18.3502C0.847917 18.3502 0 17.6303 0 16.742V10.019C0 9.14233 0.847917 8.42242 1.72448 8.42242C2.58958 8.42242 3.3 9.14233 3.3 10.019ZM3.91875 19.134C3.91875 20.0861 4.675 20.8525 5.61458 20.8525H6.75469L6.77187 24.3998C6.77187 26.5421 9.93437 26.5247 9.93437 24.3998V20.8525H12.0656V24.3998C12.0656 26.5305 15.2453 26.5363 15.2453 24.3998V20.8525H16.4026C17.3307 20.8525 18.087 20.0861 18.087 19.134V8.71851H3.91875V19.134ZM18.1271 8.15535H3.85573C3.85573 5.6705 5.3224 3.51077 7.49948 2.38446L6.40521 0.335037C6.24479 0.0505559 6.65156 -0.129422 6.78906 0.114419L7.90052 2.18126C9.9 1.28137 12.1974 1.32782 14.1052 2.18126L15.2109 0.120225C15.3542 -0.129422 15.7552 0.0563615 15.5948 0.340842L14.5005 2.38446C16.6604 3.51077 18.1271 5.6705 18.1271 8.15535ZM8.3474 4.93318C8.3474 4.60225 8.08385 4.32357 7.74583 4.32357C7.41927 4.32357 7.16146 4.60225 7.16146 4.93318C7.16146 5.2641 7.425 5.54278 7.74583 5.54278C8.08385 5.54278 8.3474 5.2641 8.3474 4.93318ZM14.8443 4.93318C14.8443 4.60225 14.5807 4.32357 14.2599 4.32357C13.9219 4.32357 13.6583 4.60225 13.6583 4.93318C13.6583 5.2641 13.9219 5.54278 14.2599 5.54278C14.5807 5.54278 14.8443 5.2641 14.8443 4.93318ZM20.2755 8.42242C19.4104 8.42242 18.7 9.12491 18.7 10.019V16.742C18.7 17.6361 19.4104 18.3502 20.2755 18.3502C21.1578 18.3502 22 17.6303 22 16.742V10.019C22 9.12491 21.1521 8.42242 20.2755 8.42242Z" fill="#E4E4E4"/>
</svg>
