<svg width="24" height="22" viewBox="0 0 24 22" fill="none" xmlns="http://www.w3.org/2000/svg">
<path d="M11.3044 21.4243C7.02523 21.4243 3.31174 18.1803 3.31174 13.9049L3.3079 8.71373V7.38998H0.59494V0.794189L12.0356 0.848068L15.6144 0.85577C19.8974 0.85577 23.607 4.09593 23.607 8.37511V21.4243L11.3044 21.4243ZM21.8638 17.9238C21.8638 15.0811 21.8638 8.3751 21.8638 8.3751C21.8638 5.18499 19.0662 2.599 15.6144 2.599H12.0317V2.5913L2.34201 2.54896V5.64675C2.34201 5.64675 2.73119 5.64675 3.42745 5.64675C4.16437 5.64675 5.05111 6.33926 5.05111 7.35551L5.05881 13.9011C5.05881 17.0912 7.85644 19.6772 11.3044 19.6772H19.8174C20.9088 19.6772 21.8638 18.986 21.8638 17.9238Z" fill="#E4E4E4"/>
<path d="M13.4379 6.04813C12.6293 6.04813 11.9109 6.34832 11.3337 6.93144C10.7567 7.51424 10.4538 8.24182 10.4538 9.06292V13.2134H12.3363V9.06292C12.3363 8.74821 12.439 8.50212 12.6637 8.27513C12.8892 8.04742 13.1279 7.94433 13.4379 7.94433C13.7544 7.94433 13.9895 8.0469 14.2155 8.27513C14.4402 8.50212 14.5429 8.74821 14.5429 9.06292V13.2134H16.4254V9.06292C16.4254 8.74821 16.5281 8.50212 16.7528 8.27513C16.9787 8.0469 17.2139 7.94433 17.5304 7.94433C17.8404 7.94433 18.0791 8.04742 18.3045 8.27513C18.5292 8.50212 18.6319 8.74821 18.6319 9.06292L18.6422 13.9126C18.6422 14.9471 17.657 15.819 16.3913 15.819L10.3208 15.7951C9.34405 15.7951 8.50985 14.8444 8.50985 13.6227V4.49011H6.72961V13.9739C6.72961 14.9802 7.09782 15.8625 7.81412 16.5761C8.42637 17.1804 9.16268 17.5721 9.98996 17.6606L16.7494 17.6606C17.7881 17.6606 18.7006 17.2744 19.4368 16.5249H19.4402C20.0663 15.8816 20.4324 15.1108 20.5213 14.2434L20.5145 9.06292C20.5145 8.24182 20.2116 7.51424 19.6346 6.93144C19.0574 6.34832 18.3389 6.04813 17.5304 6.04813C16.7367 6.04813 16.0423 6.34326 15.4807 6.88368C14.9208 6.34415 14.2312 6.04813 13.4379 6.04813Z" fill="#E4E4E4"/>
</svg>
