<svg width="23" height="23" viewBox="0 0 23 23" fill="none" xmlns="http://www.w3.org/2000/svg">
<path d="M10.6882 13.9624C10.6882 15.8971 9.68029 17.1147 8.07029 17.1147C6.46029 17.1147 5.45235 15.8903 5.45235 13.9624C5.45235 12.0209 6.46029 10.8032 8.07029 10.8032C9.68029 10.8032 10.6882 12.0209 10.6882 13.9624ZM12.9341 7.13676L12.2306 7.18412C11.8315 7.21118 11.6556 7.35324 11.6556 7.61029C11.6556 7.88088 11.8788 8.02971 12.19 8.02971C12.6162 8.02971 12.9341 7.75235 12.9341 7.38029V7.13676ZM23 11.5C23 17.9197 17.9197 23 11.5 23C5.08029 23 0 17.9197 0 11.5C0 5.08029 5.08029 0 11.5 0C17.9197 0 23 5.08029 23 11.5ZM14.1653 6.99471C14.1653 7.92824 14.6794 8.49647 15.5182 8.49647C16.2285 8.49647 16.675 8.09735 16.7494 7.52912H16.1947C16.1203 7.84029 15.8768 8.00941 15.5182 8.00941C15.0447 8.00941 14.7538 7.62382 14.7538 6.99471C14.7538 6.37235 15.0447 6.00029 15.5182 6.00029C15.8971 6.00029 16.1338 6.21676 16.1947 6.49412H16.7494C16.675 5.93941 16.2421 5.52 15.5182 5.52C14.6794 5.51324 14.1653 6.08147 14.1653 6.99471ZM6.43324 5.57412V8.44235H7.00147V6.68353C7.00147 6.31147 7.26529 6.01382 7.61029 6.01382C7.94853 6.01382 8.165 6.21676 8.165 6.54147V8.44235H8.71971V6.62941C8.71971 6.28441 8.95647 6.01382 9.32853 6.01382C9.70059 6.01382 9.88323 6.20324 9.88323 6.60235V8.44235H10.4515V6.46029C10.4515 5.865 10.1132 5.51323 9.53147 5.51323C9.13235 5.51323 8.80088 5.71618 8.65882 6.02735H8.61147C8.48294 5.71618 8.21235 5.51323 7.82 5.51323C7.43441 5.51323 7.14353 5.70265 7.02176 6.02735H6.98118V5.56735L6.43324 5.57412ZM11.6962 13.9624C11.6962 11.4662 10.3026 9.89676 8.07029 9.89676C5.83794 9.89676 4.44441 11.4662 4.44441 13.9624C4.44441 16.4585 5.83794 18.0212 8.07029 18.0212C10.3026 18.0212 11.6962 16.4518 11.6962 13.9624ZM12.0479 8.48971C12.4268 8.48971 12.7379 8.32735 12.9138 8.03647H12.9612V8.44235H13.5091V6.48059C13.5091 5.87853 13.1032 5.52 12.3794 5.52C11.7232 5.52 11.2632 5.83794 11.2024 6.31824H11.7503C11.8112 6.10853 12.0344 5.99353 12.3524 5.99353C12.7379 5.99353 12.9409 6.16941 12.9409 6.48735V6.73765L12.1629 6.785C11.4797 6.82559 11.0941 7.12324 11.0941 7.64412C11.0874 8.15824 11.4932 8.48971 12.0479 8.48971ZM18.2512 15.6535C18.2512 14.5374 17.6018 13.8879 15.9647 13.5294L15.0921 13.34C14.0165 13.1032 13.5971 12.6771 13.5971 12.0615C13.5971 11.2632 14.3547 10.7829 15.3356 10.7829C16.3638 10.7829 17.0403 11.3106 17.1282 12.1765H18.1091C18.0618 10.8438 16.9321 9.90353 15.3626 9.90353C13.7324 9.90353 12.5891 10.8168 12.5891 12.1088C12.5891 13.225 13.2724 13.9421 14.8485 14.2871L15.7212 14.4765C16.8103 14.7132 17.25 15.1529 17.25 15.8091C17.25 16.5803 16.4721 17.1418 15.41 17.1418C14.2803 17.1418 13.4956 16.6276 13.3806 15.7821H12.3997C12.4944 17.1418 13.6376 18.0212 15.3559 18.0212C17.1079 18.0212 18.2512 17.1079 18.2512 15.6535Z" fill="#E4E4E4"/>
</svg>
