<svg width="25" height="25" viewBox="0 0 25 25" fill="none" xmlns="http://www.w3.org/2000/svg">
<path d="M21.7146 21.0683L16.3746 13.9668V23.3601L12.9862 25V10.7903L16.5989 9.37169L22.0758 16.6826V6.81776L25 5.73734V19.7397L21.7146 21.0683ZM6.03077 20.3728L4.11472 16.7943V21.3042L6.03077 20.3728ZM11.9697 25V10.7903L8.44569 9.37169V16.4513L3.32996 6.65219L0 5.34755V19.8717L3.31567 21.3042V13.3877L8.43212 23.4866L11.9697 25ZM21.2639 21.4764L17.0108 15.8701V18.2071L18.6107 20.3956L21.2639 21.4764ZM12.524 6.18109L16.1659 7.59243L16.9991 6.18109V1.87186L13.6272 3.15346L12.524 5.1669V6.18109ZM10.6215 6.92808L12.6336 3.14596L9.55616 1.84521L8.07745 4.58119L9.43241 7.41974L10.6215 6.92808ZM12.524 9.90521L16.1459 8.50257L12.524 7.00033L8.90218 8.60218L12.524 9.90521ZM3.41747 3.20836L0 4.58119L3.85859 5.92227L7.03758 4.58119L3.41747 3.20836ZM16.4782 1.28368L13.2478 0L10.0177 1.26797L13.248 2.55165L16.4782 1.28368ZM18.328 4.90386L21.6811 6.13735L25 4.90386L21.9225 3.67033L18.328 4.90386ZM8.79159 7.64138L7.62613 5.32016L4.35943 6.6124L7.71617 13.0628V8.13915L8.79159 7.64138ZM18.328 5.66015L16.7649 8.12814L21.3339 14.6288V6.81776L18.328 5.66015Z" fill="#E4E4E4"/>
</svg>
