<svg width="29" height="22" viewBox="0 0 29 22" fill="none" xmlns="http://www.w3.org/2000/svg">
<path d="M28.7434 16.8427C28.1745 17.5456 26.79 18.0454 26.79 18.0454L16.4643 21.6882V19.0007L24.0613 16.3379C24.9222 16.036 25.0582 15.6054 24.3533 15.3777C23.6535 15.1501 22.3848 15.2144 21.5239 15.5213L16.4643 17.2783V14.4868C17.6323 14.1008 18.8355 13.8137 20.2754 13.6553C22.3345 13.4326 24.8518 13.685 26.8303 14.4225C29.0556 15.1154 29.3073 16.1399 28.7434 16.8427ZM17.446 12.2646V5.38493C17.446 4.57818 17.295 3.83577 16.5247 3.62295C15.9357 3.43487 15.5681 3.97435 15.5681 4.7811V22L10.8458 20.5251V0C12.8545 0.366254 15.7796 1.2324 17.3504 1.75208C21.3528 3.10326 22.7071 4.78605 22.7071 8.57233C22.7071 12.2596 20.3912 13.6603 17.446 12.2646ZM2.17637 18.7186C-0.109288 18.085 -0.49191 16.7636 0.550231 16.0063C1.51182 15.3035 3.15307 14.7739 3.15307 14.7739L9.92447 12.4081V15.1055L5.05107 16.818C4.19017 17.1199 4.05928 17.5505 4.75907 17.7782C5.45887 18.0058 6.72756 17.9415 7.58846 17.6346L9.92447 16.7982V19.2135C7.32667 19.6738 4.81949 19.5748 2.17637 18.7186Z" fill="#E4E4E4"/>
</svg>
