<svg width="25" height="25" viewBox="0 0 25 25" fill="none" xmlns="http://www.w3.org/2000/svg">
<path d="M17.6688 15.1489C19.8319 17.8002 20.828 19.9731 20.325 20.9448C19.9393 21.6821 17.5565 23.1225 15.8035 23.6743C14.3582 24.1284 12.4637 24.3237 10.9012 24.1723C9.03597 23.9916 7.14632 23.3227 5.52522 22.268C4.16292 21.3793 3.8553 21.0131 3.8553 20.2856C3.8553 18.8256 5.46175 16.267 8.21077 13.3471C9.77327 11.6918 11.9461 9.74847 12.1854 9.80218C12.6444 9.90472 16.3016 13.4692 17.6688 15.1489ZM8.81624 6.63324C7.36604 5.31976 5.97932 4.0014 4.59749 3.53754C3.8553 3.28851 3.80159 3.30316 3.19612 3.93304C1.77034 5.41742 0.583817 7.82465 0.251786 9.90961C-0.0118864 11.5795 -0.046066 12.0483 0.0467074 12.8637C0.320145 15.3295 0.891434 17.0336 2.02425 18.767C2.48811 19.4799 2.61507 19.6118 2.47835 19.2504C2.27327 18.7133 2.4637 17.4194 2.94222 16.1254C3.64046 14.2211 5.57405 10.6127 8.81624 6.63324ZM24.0311 9.73383C23.2059 5.82758 20.7352 3.37152 20.3885 3.37152C20.0321 3.37152 19.2069 3.6889 18.6307 4.05023C17.493 4.75824 16.6287 5.58343 15.491 6.62836C17.5614 9.2309 20.4813 13.435 21.492 16.5063C21.8241 17.517 21.9657 18.5131 21.8533 19.06C21.7703 19.475 21.7703 19.475 21.9217 19.2846C22.2196 18.9086 22.8934 17.7563 23.1619 17.1606C23.5233 16.3696 23.8944 15.1977 24.0701 14.2944C24.2801 13.1957 24.2606 10.8373 24.0311 9.73383ZM6.50667 1.71136C8.83577 1.58929 11.8631 3.39593 12.0877 3.43988C12.1219 3.44476 12.5955 3.2348 13.1424 2.96625C16.2625 1.44769 17.7323 1.70648 18.3866 1.73578C15.2664 -0.183167 10.9305 -0.705628 6.96565 1.16449C5.82307 1.70648 5.79378 1.74554 6.50667 1.71136Z" fill="#E4E4E4"/>
</svg>
